<?xml version="1.0" standalone="yes"?>
<svg xmlns="http://www.w3.org/2000/svg" width="500" height="500">
<path style="fill:#282828; stroke:none;" d="M0 0L0 500L500 500L500 0L0 0z"/>
<path style="fill:#ebebeb; stroke:none;" d="M10 10L10 430L15 430L15 425L20 425L20 420L30 420L30 415L40 415L40 410L50 410L50 405L60 405L60 400L80 400L80 395L90 395L90 390L95 390L95 385L100 385L100 355L105 355L105 335L110 335L110 320L115 320L115 260L120 260L120 185L125 185L125 155L130 155L130 150L135 150L135 140L140 140L140 130L145 130L145 125L150 125L150 115L155 115L155 110L160 110L160 105L165 105L165 100L170 100L170 95L175 95L175 90L180 90L180 85L190 85L190 80L200 80L200 75L225 75L225 80L240 80L240 85L255 85L255 80L260 80L260 75L270 75L270 70L295 70L295 75L305 75L305 80L315 80L315 85L320 85L320 90L330 90L330 95L335 95L335 100L340 100L340 105L345 105L345 110L350 110L350 115L355 115L355 120L360 120L360 125L365 125L365 130L370 130L370 135L375 135L375 145L380 145L380 155L385 155L385 165L390 165L390 175L395 175L395 245L400 245L400 315L405 315L405 330L410 330L410 345L415 345L415 355L420 355L420 365L425 365L425 370L430 370L430 380L435 380L435 385L440 385L440 390L445 390L445 395L450 395L450 400L455 400L455 415L465 415L465 420L475 420L475 425L485 425L485 430L490 430L490 10L10 10z"/>
<path style="fill:#555555; stroke:none;" d="M270 70L270 75L260 75L260 80L255 80L255 85L240 85L240 80L200 80L200 85L190 85L190 90L185 90L185 95L180 95L180 100L175 100L175 105L165 105L165 115L160 115L160 120L155 120L155 125L150 125L150 130L145 130L145 140L140 140L140 150L135 150L135 160L130 160L130 185L125 185L125 260L120 260L120 320L115 320L115 335L110 335L110 355L105 355L105 385L100 385L100 390L95 390L95 395L90 395L90 400L80 400L80 405L85 405L85 410L90 410L90 415L85 415L85 420L80 420L80 425L75 425L75 435L70 435L70 440L65 440L65 445L60 445L60 450L55 450L55 455L60 455L60 450L65 450L65 445L70 445L70 440L75 440L75 435L80 435L80 430L85 430L85 425L90 425L90 420L95 420L95 415L100 415L100 410L105 410L105 415L110 415L110 430L105 430L105 445L110 445L110 455L115 455L115 435L120 435L120 425L145 425L145 420L155 420L155 385L150 385L150 305L155 305L155 310L160 310L160 315L165 315L165 325L170 325L170 345L185 345L185 350L190 350L190 355L195 355L195 360L205 360L205 365L215 365L215 370L270 370L270 365L280 365L280 370L285 370L285 365L300 365L300 360L305 360L305 365L310 365L310 360L315 360L315 355L320 355L320 350L325 350L325 345L335 345L335 330L330 330L330 325L340 325L340 305L345 305L345 300L350 300L350 295L355 295L355 285L360 285L360 275L365 275L365 260L360 260L360 265L355 265L355 275L350 275L350 285L345 285L345 290L340 290L340 295L335 295L335 305L330 305L330 320L320 320L320 315L315 315L315 305L310 305L310 315L315 315L315 320L320 320L320 335L315 335L315 330L310 330L310 340L305 340L305 335L300 335L300 345L295 345L295 340L290 340L290 350L285 350L285 340L280 340L280 350L275 350L275 340L270 340L270 350L265 350L265 340L260 340L260 350L255 350L255 340L250 340L250 350L245 350L245 340L240 340L240 350L235 350L235 340L230 340L230 350L225 350L225 340L220 340L220 350L215 350L215 340L210 340L210 345L205 345L205 335L200 335L200 340L195 340L195 330L190 330L190 335L185 335L185 320L190 320L190 315L195 315L195 305L190 305L190 315L185 315L185 320L175 320L175 305L165 305L165 295L160 295L160 290L155 290L155 285L150 285L150 260L155 260L155 245L160 245L160 200L155 200L155 195L160 195L160 160L165 160L165 155L170 155L170 150L175 150L175 145L180 145L180 140L190 140L190 135L195 135L195 130L205 130L205 125L215 125L215 120L220 120L220 115L235 115L235 110L250 110L250 105L275 105L275 110L280 110L280 115L285 115L285 120L295 120L295 125L300 125L300 130L305 130L305 135L310 135L310 140L315 140L315 145L320 145L320 150L325 150L325 155L330 155L330 165L335 165L335 175L330 175L330 170L285 170L285 175L270 175L270 180L265 180L265 190L275 190L275 185L285 185L285 180L330 180L330 185L335 185L335 175L340 175L340 185L345 185L345 195L340 195L340 190L335 190L335 195L340 195L340 200L345 200L345 195L350 195L350 240L355 240L355 250L365 250L365 255L370 255L370 260L375 260L375 315L370 315L370 330L365 330L365 375L370 375L370 390L375 390L375 405L380 405L380 430L385 430L385 445L390 445L390 450L395 450L395 455L400 455L400 460L405 460L405 470L410 470L410 480L415 480L415 490L450 490L450 485L445 485L445 480L440 480L440 470L435 470L435 460L430 460L430 450L425 450L425 430L420 430L420 410L425 410L425 405L430 405L430 400L440 400L440 395L435 395L435 390L430 390L430 385L425 385L425 380L420 380L420 370L415 370L415 365L410 365L410 355L405 355L405 350L400 350L400 340L395 340L395 315L390 315L390 240L385 240L385 190L380 190L380 165L375 165L375 160L370 160L370 150L365 150L365 140L360 140L360 135L355 135L355 130L350 130L350 125L345 125L345 120L340 120L340 110L335 110L335 105L325 105L325 95L320 95L320 90L315 90L315 85L305 85L305 80L295 80L295 75L275 75L275 70L270 70z"/>
<path style="fill:#282828; stroke:none;" d="M275 70L275 75L295 75L295 70L275 70z"/>
<path style="fill:#878787; stroke:none;" d="M200 75L200 80L225 80L225 75L200 75z"/>
<path style="fill:#282828; stroke:none;" d="M295 75L295 80L305 80L305 75L295 75z"/>
<path style="fill:#878787; stroke:none;" d="M190 80L190 85L200 85L200 80L190 80z"/>
<path style="fill:#282828; stroke:none;" d="M305 80L305 85L315 85L315 80L305 80z"/>
<path style="fill:#878787; stroke:none;" d="M180 85L180 90L175 90L175 95L170 95L170 100L165 100L165 105L175 105L175 100L180 100L180 95L185 95L185 90L190 90L190 85L180 85z"/>
<path style="fill:#282828; stroke:none;" d="M315 85L315 90L320 90L320 85L315 85z"/>
<path style="fill:#878787; stroke:none;" d="M160 105L160 110L155 110L155 115L150 115L150 125L155 125L155 120L160 120L160 115L165 115L165 105L160 105M250 105L250 110L260 110L260 115L265 115L265 120L270 120L270 125L275 125L275 130L280 130L280 135L285 135L285 140L290 140L290 145L300 145L300 150L305 150L305 155L310 155L310 160L315 160L315 165L320 165L320 170L330 170L330 175L335 175L335 165L330 165L330 155L325 155L325 150L320 150L320 145L315 145L315 140L310 140L310 135L305 135L305 130L300 130L300 125L295 125L295 120L285 120L285 115L280 115L280 110L275 110L275 105L250 105z"/>
<path style="fill:#bfbfbf; stroke:none;" d="M235 110L235 115L220 115L220 120L215 120L215 125L205 125L205 130L195 130L195 135L190 135L190 140L180 140L180 145L175 145L175 150L170 150L170 155L165 155L165 160L160 160L160 190L215 190L215 180L170 180L170 185L165 185L165 175L170 175L170 170L215 170L215 175L230 175L230 180L235 180L235 185L240 185L240 190L245 190L245 195L250 195L250 200L255 200L255 190L260 190L260 185L265 185L265 180L270 180L270 175L285 175L285 170L320 170L320 165L315 165L315 160L310 160L310 155L305 155L305 150L300 150L300 145L290 145L290 140L285 140L285 135L280 135L280 130L275 130L275 125L270 125L270 120L265 120L265 115L260 115L260 110L235 110z"/>
<path style="fill:#878787; stroke:none;" d="M145 125L145 130L150 130L150 125L145 125M140 130L140 140L145 140L145 130L140 130M135 140L135 150L140 150L140 140L135 140M130 150L130 155L125 155L125 185L130 185L130 160L135 160L135 150L130 150M180 150L180 155L185 155L185 150L180 150z"/>
<path style="fill:#555555; stroke:none;" d="M170 170L170 175L165 175L165 185L170 185L170 180L215 180L215 185L225 185L225 190L235 190L235 180L230 180L230 175L215 175L215 170L170 170z"/>
<path style="fill:#878787; stroke:none;" d="M335 175L335 185L330 185L330 180L285 180L285 185L275 185L275 190L265 190L265 185L260 185L260 190L255 190L255 200L250 200L250 195L245 195L245 190L240 190L240 185L235 185L235 190L225 190L225 185L215 185L215 190L225 190L225 195L240 195L240 200L235 200L235 205L230 205L230 210L235 210L235 205L250 205L250 265L245 265L245 260L235 260L235 255L230 255L230 260L235 260L235 265L245 265L245 270L260 270L260 265L270 265L270 260L280 260L280 245L275 245L275 230L270 230L270 220L275 220L275 225L330 225L330 220L275 220L275 215L270 215L270 210L265 210L265 205L255 205L255 200L270 200L270 195L275 195L275 190L340 190L340 195L345 195L345 185L340 185L340 175L335 175M120 185L120 260L125 260L125 185L120 185M160 190L160 195L155 195L155 200L160 200L160 195L165 195L165 190L160 190z"/>
<path style="fill:#ebebeb; stroke:none;" d="M165 190L165 195L160 195L160 205L165 205L165 215L170 215L170 220L225 220L225 215L230 215L230 205L235 205L235 200L230 200L230 195L225 195L225 190L165 190M275 190L275 195L270 195L270 200L265 200L265 205L270 205L270 215L275 215L275 220L330 220L330 215L335 215L335 205L340 205L340 195L335 195L335 190L275 190z"/>
<path style="fill:#bfbfbf; stroke:none;" d="M210 195L210 200L215 200L215 205L220 205L220 200L215 200L215 195L210 195M230 195L230 200L240 200L240 195L230 195M300 195L300 200L305 200L305 205L310 205L310 210L315 210L315 205L310 205L310 200L305 200L305 195L300 195z"/>
<path style="fill:#878787; stroke:none;" d="M345 195L345 200L340 200L340 215L335 215L335 230L330 230L330 275L325 275L325 280L320 280L320 295L315 295L315 300L310 300L310 305L315 305L315 315L320 315L320 320L330 320L330 305L335 305L335 295L340 295L340 290L345 290L345 285L350 285L350 275L355 275L355 265L360 265L360 250L355 250L355 240L350 240L350 195L345 195z"/>
<path style="fill:#bfbfbf; stroke:none;" d="M200 200L200 205L205 205L205 210L210 210L210 205L205 205L205 200L200 200z"/>
<path style="fill:#555555; stroke:none;" d="M255 200L255 205L265 205L265 200L255 200z"/>
<path style="fill:#bfbfbf; stroke:none;" d="M290 200L290 205L295 205L295 210L300 210L300 215L305 215L305 210L300 210L300 205L295 205L295 200L290 200z"/>
<path style="fill:#878787; stroke:none;" d="M160 205L160 215L165 215L165 220L170 220L170 225L225 225L225 220L230 220L230 215L225 215L225 220L170 220L170 215L165 215L165 205L160 205z"/>
<path style="fill:#bfbfbf; stroke:none;" d="M235 205L235 210L230 210L230 220L225 220L225 225L170 225L170 220L165 220L165 215L160 215L160 245L155 245L155 260L150 260L150 285L155 285L155 290L160 290L160 295L165 295L165 305L175 305L175 320L185 320L185 315L190 315L190 305L195 305L195 315L190 315L190 320L185 320L185 335L190 335L190 330L195 330L195 340L200 340L200 335L205 335L205 345L210 345L210 340L215 340L215 350L220 350L220 340L225 340L225 350L230 350L230 340L235 340L235 350L240 350L240 340L245 340L245 350L250 350L250 340L255 340L255 350L260 350L260 340L265 340L265 350L270 350L270 340L275 340L275 350L280 350L280 340L285 340L285 350L290 350L290 340L295 340L295 330L300 330L300 320L305 320L305 315L310 315L310 300L315 300L315 295L320 295L320 280L325 280L325 275L330 275L330 230L335 230L335 220L330 220L330 225L275 225L275 220L270 220L270 230L275 230L275 245L280 245L280 260L270 260L270 265L260 265L260 270L245 270L245 265L235 265L235 260L230 260L230 255L235 255L235 260L245 260L245 265L250 265L250 205L235 205z"/>
<path style="fill:#555555; stroke:none;" d="M265 205L265 210L270 210L270 205L265 205M335 205L335 215L340 215L340 205L335 205M330 215L330 220L335 220L335 215L330 215z"/>
<path style="fill:#878787; stroke:none;" d="M195 255L195 260L200 260L200 255L195 255M115 260L115 320L120 320L120 260L115 260z"/>
<path style="fill:#555555; stroke:none;" d="M230 275L230 285L235 285L235 275L230 275M240 275L240 285L245 285L245 275L240 275M250 275L250 285L255 285L255 275L250 275M260 275L260 285L265 285L265 275L260 275M270 275L270 285L275 285L275 275L270 275M220 280L220 290L225 290L225 280L220 280M280 280L280 290L285 290L285 280L280 280z"/>
<path style="fill:#282828; stroke:none;" d="M145 285L145 305L150 305L150 285L145 285z"/>
<path style="fill:#555555; stroke:none;" d="M210 285L210 295L215 295L215 285L210 285M290 285L290 295L295 295L295 285L290 285M200 295L200 300L205 300L205 295L200 295M300 295L300 300L305 300L305 295L300 295z"/>
<path style="fill:#282828; stroke:none;" d="M150 305L150 385L155 385L155 400L160 400L160 365L165 365L165 345L170 345L170 325L165 325L165 315L160 315L160 310L155 310L155 305L150 305z"/>
<path style="fill:#878787; stroke:none;" d="M230 305L230 310L275 310L275 305L230 305M165 310L165 315L170 315L170 310L165 310M240 315L240 320L245 320L245 325L260 325L260 320L265 320L265 315L240 315M305 315L305 320L300 320L300 330L295 330L295 345L300 345L300 335L305 335L305 340L310 340L310 330L315 330L315 335L320 335L320 320L315 320L315 315L305 315M110 320L110 335L115 335L115 320L110 320M175 325L175 330L180 330L180 325L175 325M330 325L330 330L335 330L335 325L330 325M325 330L325 335L330 335L330 330L325 330M105 335L105 355L110 355L110 335L105 335M185 340L185 345L190 345L190 340L185 340M310 340L310 345L315 345L315 340L310 340z"/>
<path style="fill:#bfbfbf; stroke:none;" d="M165 345L165 365L160 365L160 400L155 400L155 420L160 420L160 425L170 425L170 430L175 430L175 435L185 435L185 440L200 440L200 445L220 445L220 450L275 450L275 440L280 440L280 435L285 435L285 430L290 430L290 415L295 415L295 400L300 400L300 390L295 390L295 375L290 375L290 365L285 365L285 370L215 370L215 365L200 365L200 360L195 360L195 355L190 355L190 350L185 350L185 345L165 345z"/>
<path style="fill:#878787; stroke:none;" d="M195 345L195 350L200 350L200 345L195 345M325 345L325 350L320 350L320 355L315 355L315 360L310 360L310 365L305 365L305 360L300 360L300 365L290 365L290 375L295 375L295 390L300 390L300 400L295 400L295 415L290 415L290 430L285 430L285 435L280 435L280 440L275 440L275 450L280 450L280 445L300 445L300 440L315 440L315 435L325 435L325 430L330 430L330 425L340 425L340 420L345 420L345 415L350 415L350 410L355 410L355 405L360 405L360 395L355 395L355 385L345 385L345 380L340 380L340 365L335 365L335 345L325 345M205 350L205 355L210 355L210 350L205 350M295 350L295 355L300 355L300 350L295 350M100 355L100 385L105 385L105 355L100 355M215 355L215 360L220 360L220 355L215 355M240 355L240 360L245 360L245 355L240 355M275 355L275 360L280 360L280 355L275 355M305 355L305 360L310 360L310 355L305 355M200 360L200 365L205 365L205 360L200 360M225 360L225 365L230 365L230 360L225 360M260 360L260 365L265 365L265 360L260 360M270 365L270 370L280 370L280 365L270 365M95 385L95 390L100 390L100 385L95 385M90 390L90 395L95 395L95 390L90 390M80 395L80 400L90 400L90 395L80 395M60 400L60 405L50 405L50 410L40 410L40 415L30 415L30 420L20 420L20 425L15 425L15 430L10 430L10 435L20 435L20 430L35 430L35 425L40 425L40 420L50 420L50 415L60 415L60 410L85 410L85 405L80 405L80 400L60 400M85 410L85 415L90 415L90 410L85 410M100 410L100 415L105 415L105 410L100 410M80 415L80 420L85 420L85 415L80 415M105 415L105 430L110 430L110 415L105 415M75 420L75 425L80 425L80 420L75 420M70 425L70 435L75 435L75 425L70 425M100 430L100 445L105 445L105 430L100 430M65 435L65 440L70 440L70 435L65 435M60 440L60 445L65 445L65 440L60 440M55 445L55 450L60 450L60 445L55 445M105 445L105 455L110 455L110 445L105 445M50 450L50 455L55 455L55 450L50 450M110 455L110 460L115 460L115 455L110 455M115 460L115 465L120 465L120 460L115 460z"/>
</svg>
